<svg xmlns="http://www.w3.org/2000/svg" viewBox="0 0 512 256" fill="blue"><path d="M45.9 74.9V6.8h27.7c7.3 0 12.6 1.8 16.1 5.3 3.5 3.5 5.2 9 5.2 16.6 0 7.2-1.9 12.6-5.8 16.3s-9 5.5-15.5 5.5H58.9V75h-13zm13-35.4H75c2.3 0 3.9-.6 4.9-1.7 1-1.1 1.5-2.8 1.5-5.1v-8.4c0-2.3-.5-3.9-1.4-4.9-.9-1-2.6-1.5-5-1.5H58.9v21.6zM97.7 49.4c0-4 .5-7.7 1.6-10.9 1.1-3.3 2.6-6.1 4.7-8.5 2-2.4 4.5-4.2 7.5-5.5 3-1.3 6.4-1.9 10.2-1.9 3.8 0 7.2.6 10.2 1.9 3 1.3 5.5 3.1 7.5 5.5s3.6 5.2 4.6 8.5c1.1 3.3 1.6 6.9 1.6 10.9s-.5 7.6-1.6 10.9c-1.1 3.3-2.6 6.1-4.6 8.5-2 2.4-4.5 4.2-7.5 5.5-3 1.3-6.4 1.9-10.2 1.9-3.8 0-7.2-.6-10.2-1.9-3-1.3-5.5-3.1-7.5-5.5s-3.6-5.2-4.7-8.5-1.6-6.9-1.6-10.9zm13 7.4c0 3.1 1 5.4 3.1 7.1 2.1 1.7 4.7 2.5 7.8 2.5s5.7-.8 7.8-2.4c2.1-1.6 3.1-4 3.1-7.2V42c0-3.1-1-5.5-3.1-7.1-2.1-1.6-4.7-2.4-7.8-2.4s-5.7.8-7.8 2.5c-2.1 1.7-3.1 4-3.1 7.1v14.7zM149.1 58.7h12.5c.5 5.2 3.6 7.7 9.2 7.7 2.4 0 4.5-.4 6.2-1.3 1.7-.9 2.5-2.3 2.5-4.3 0-1.9-.7-3.2-2.1-4-1.4-.8-3.2-1.5-5.5-2l-8.8-1.9c-8.5-1.9-12.8-6.7-12.8-14.6 0-2.2.4-4.3 1.3-6.2.9-1.9 2.2-3.5 3.9-4.9 1.7-1.4 3.8-2.5 6.2-3.3 2.4-.8 5.2-1.2 8.4-1.2 5.8 0 10.6 1.4 14.3 4.2s5.7 7 6 12.7h-12.5c-.1-2.4-.9-4.2-2.3-5.4-1.4-1.2-3.2-1.8-5.4-1.8s-3.9.5-5.3 1.5-2 2.3-2 4.1c0 1.7.5 3 1.5 3.9 1 .8 2.3 1.4 3.9 1.8l10.1 2.2c1.9.4 3.7.9 5.4 1.7 1.7.7 3.2 1.7 4.4 2.9 1.2 1.2 2.2 2.6 2.9 4.2.7 1.6 1.1 3.5 1.1 5.7s-.5 4.3-1.4 6.2c-.9 1.9-2.3 3.6-4.1 5-1.8 1.4-4 2.6-6.7 3.4-2.6.8-5.7 1.3-9 1.3-6.8 0-12.1-1.5-15.8-4.5-3.9-3.2-5.9-7.5-6.1-13.1zM193.2 33.6v-9.7h10.1V6.8h12.5v17.1h12.7v9.7h-12.7v31.6h12.7v9.7h-25.2V33.6h-10.1zM231.8 49.3c0-4 .6-7.7 1.7-10.9 1.1-3.3 2.7-6.1 4.7-8.4 2-2.3 4.4-4.1 7.3-5.4 2.8-1.3 6-1.9 9.4-1.9 3.5 0 6.6.6 9.4 1.9 2.8 1.2 5.2 2.9 7.2 5.1 2 2.2 3.5 4.7 4.6 7.8 1.1 3 1.6 6.2 1.6 9.7v6.3h-32.9v3.4c0 3.1 1 5.4 3 7.1 2 1.7 4.4 2.5 7.1 2.5s5-.7 6.7-2.2c1.7-1.4 2.8-3.5 3.1-6.1h12.5c-.8 5.7-3.2 10.1-7.2 13.2-4 3.1-9.1 4.7-15.3 4.7-3.6 0-6.8-.7-9.7-2-2.8-1.3-5.3-3.1-7.2-5.5-2-2.3-3.5-5.2-4.5-8.5-.9-3.1-1.5-6.8-1.5-10.8zm13-5.6h20.1v-1.8c0-2.8-1-5.1-2.8-6.8-1.9-1.8-4.3-2.6-7.2-2.6-2.9 0-5.3.9-7.2 2.6-1.9 1.8-2.8 4-2.8 6.8v1.8zM284.2 74.9v-51h28.5v9.8h-16V75h-12.5zM313.6 58.7h12.5c.5 5.2 3.6 7.7 9.2 7.7 2.4 0 4.5-.4 6.2-1.3 1.7-.9 2.5-2.3 2.5-4.3 0-1.9-.7-3.2-2.1-4-1.4-.8-3.2-1.5-5.5-2l-8.8-1.9c-8.5-1.9-12.8-6.7-12.8-14.6 0-2.2.4-4.3 1.3-6.2.9-1.9 2.2-3.5 3.9-4.9 1.7-1.4 3.8-2.5 6.2-3.3 2.4-.8 5.2-1.2 8.4-1.2 5.8 0 10.6 1.4 14.3 4.2 3.7 2.8 5.7 7 6 12.7h-12.5c-.1-2.4-.9-4.2-2.3-5.4-1.4-1.2-3.2-1.8-5.4-1.8-2.1 0-3.9.5-5.3 1.5s-2 2.3-2 4.1c0 1.7.5 3 1.5 3.9s2.3 1.4 3.9 1.8l10.1 2.2c1.9.4 3.7.9 5.4 1.7 1.7.7 3.2 1.7 4.4 2.9 1.2 1.2 2.2 2.6 2.9 4.2.7 1.6 1.1 3.5 1.1 5.7s-.5 4.3-1.4 6.2c-.9 1.9-2.3 3.6-4.1 5-1.8 1.4-4 2.6-6.7 3.4-2.6.8-5.7 1.3-9 1.3-6.8 0-12.1-1.5-15.8-4.5-3.8-3.2-5.8-7.5-6.1-13.1zM4.7 151.1V82.9h27.7c7.3 0 12.6 1.8 16.1 5.3 3.5 3.5 5.2 9 5.2 16.6 0 7.2-1.9 12.6-5.8 16.3-3.9 3.7-9 5.5-15.5 5.5H17.7v24.5h-13zm13-35.5h16.1c2.3 0 3.9-.6 4.9-1.7 1-1.1 1.5-2.8 1.5-5.1v-8.4c0-2.3-.5-3.9-1.4-4.9-.9-1-2.6-1.5-5-1.5H17.7v21.6zM56.1 136.5c0-4.1 1.4-7.7 4.3-10.7 2.9-3 7-4.7 12.4-5.2l14.1-1.2v-3.3c0-2.7-.7-4.6-2.1-5.8-1.4-1.2-3.4-1.8-5.9-1.8-2.5 0-4.6.6-6.2 1.8-1.6 1.2-2.4 3-2.4 5.4H57.8c.1-2.8.7-5.3 1.8-7.4 1.1-2.1 2.7-3.9 4.5-5.3 1.9-1.4 4.1-2.5 6.7-3.2 2.6-.7 5.4-1.1 8.5-1.1 6.1 0 11 1.5 14.5 4.4 3.6 3 5.3 7.3 5.3 13.1v25h8.6v9.7H88.1L88 143h-.4c-1.5 2.8-3.4 5-5.8 6.7-2.4 1.6-5.6 2.5-9.6 2.5-2.3 0-4.5-.4-6.4-1.2-1.9-.8-3.6-1.9-5.1-3.3-1.5-1.4-2.6-3-3.4-4.9-.8-1.8-1.2-3.9-1.2-6.3zm13 1.5c0 1.5.7 2.7 2.1 3.4 1.4.8 3.2 1.1 5.4 1.1 3.2 0 5.7-1.1 7.6-3.4 1.8-2.3 2.8-5 2.8-8.2v-2l-15 1.3c-1.9.2-2.8 1.3-2.8 3.3v4.5zM105.7 109.7V100h10.1V82.9h12.5V100H148v9.7h-19.7v31.6H141v9.7h-25.2v-41.4h-10.1z"/><path d="M142.1 109.7V100h10.1V82.9h12.5V100h12.7v9.7h-12.7v31.6h12.7v9.7h-25.2v-41.4h-10.1zM180.8 125.4c0-4 .6-7.7 1.7-10.9 1.1-3.3 2.7-6.1 4.7-8.4 2-2.3 4.4-4.1 7.3-5.4 2.8-1.3 6-1.9 9.4-1.9 3.5 0 6.6.6 9.4 1.9 2.8 1.2 5.2 2.9 7.2 5.1 2 2.2 3.5 4.7 4.6 7.8 1.1 3 1.6 6.2 1.6 9.7v6.3h-32.9v3.4c0 3.1 1 5.4 3 7.1 2 1.7 4.4 2.5 7.1 2.5 2.7 0 5-.7 6.7-2.2 1.7-1.4 2.8-3.5 3.1-6.1h12.5c-.8 5.7-3.2 10.1-7.2 13.2-4 3.1-9.1 4.7-15.3 4.7-3.6 0-6.8-.7-9.7-2-2.8-1.3-5.3-3.1-7.2-5.5-2-2.3-3.5-5.2-4.5-8.5-1-3.1-1.5-6.8-1.5-10.8zm13-5.6h20V118c0-2.8-.9-5.1-2.8-6.8-1.9-1.8-4.3-2.6-7.2-2.6-2.9 0-5.3.9-7.2 2.6s-2.8 4-2.8 6.8v1.8zM233.2 151.1V100h28.5v9.8h-16v41.3h-12.5zM265.9 151.1V100h12.5v7.4c1.5-2.7 3.5-4.9 6-6.4s5.5-2.2 9.1-2.2c5.7 0 10 1.7 12.7 5 2.7 3.3 4.1 7.9 4.1 13.8V151h-12.5v-32.6c0-3-.6-5.3-1.9-7-1.3-1.7-3.4-2.5-6.4-2.5-3.5 0-6.2 1.1-8.1 3.4-1.9 2.3-2.9 5.3-2.9 9.1v29.5h-12.6zM315.9 134.8h12.5c.5 5.2 3.6 7.7 9.2 7.7 2.4 0 4.5-.4 6.2-1.3 1.7-.9 2.5-2.3 2.5-4.3 0-1.9-.7-3.2-2.1-4-1.4-.8-3.2-1.5-5.5-2l-8.8-1.9c-8.5-1.9-12.8-6.7-12.8-14.6 0-2.2.4-4.3 1.3-6.2.9-1.9 2.2-3.5 3.9-4.9 1.7-1.4 3.8-2.5 6.2-3.3 2.4-.8 5.2-1.2 8.4-1.2 5.8 0 10.6 1.4 14.3 4.2 3.7 2.8 5.7 7 6 12.7h-12.5c-.1-2.4-.9-4.2-2.3-5.4-1.4-1.2-3.2-1.8-5.4-1.8s-3.9.5-5.3 1.5-2 2.3-2 4.1c0 1.7.5 3 1.5 3.9 1 .8 2.3 1.4 3.9 1.8l10.1 2.2c1.9.4 3.7.9 5.4 1.7 1.7.7 3.2 1.7 4.4 2.9 1.2 1.2 2.2 2.6 2.9 4.2.7 1.6 1.1 3.5 1.1 5.7s-.5 4.3-1.4 6.2c-.9 1.9-2.3 3.6-4.1 5s-4 2.6-6.7 3.4c-2.6.8-5.7 1.3-9 1.3-6.8 0-12.1-1.5-15.8-4.5-3.8-3.2-5.8-7.5-6.1-13.1zM108.2 227.2v-68.1H136c7.3 0 12.6 1.8 16.1 5.3 3.5 3.5 5.2 9 5.2 16.6 0 7.2-1.9 12.6-5.8 16.3-3.9 3.7-9 5.5-15.5 5.5h-14.8v24.5h-13zm13-35.5h16.1c2.3 0 3.9-.6 4.9-1.7 1-1.1 1.5-2.8 1.5-5.1v-8.4c0-2.3-.5-3.9-1.4-4.9-.9-1-2.6-1.5-5-1.5h-16.1v21.6zM162.7 227.2v-51.1h28.5v9.8h-16v41.3h-12.5zM192.8 201.7c0-4 .5-7.7 1.6-10.9 1.1-3.3 2.6-6.1 4.7-8.5 2-2.4 4.5-4.2 7.5-5.5 3-1.3 6.4-1.9 10.2-1.9 3.8 0 7.2.6 10.2 1.9 3 1.3 5.5 3.1 7.5 5.5s3.6 5.2 4.6 8.5c1.1 3.3 1.6 6.9 1.6 10.9s-.5 7.6-1.6 10.9c-1.1 3.3-2.6 6.1-4.6 8.5-2 2.4-4.5 4.2-7.5 5.5-3 1.3-6.4 1.9-10.2 1.9-3.8 0-7.2-.6-10.2-1.9-3-1.3-5.5-3.1-7.5-5.5s-3.6-5.2-4.7-8.5-1.6-6.9-1.6-10.9zm13 7.3c0 3.1 1 5.4 3.1 7.1 2.1 1.7 4.7 2.5 7.8 2.5 3.1 0 5.7-.8 7.8-2.4 2.1-1.6 3.1-4 3.1-7.2v-14.8c0-3.1-1-5.5-3.1-7.1-2.1-1.6-4.7-2.4-7.8-2.4-3.1 0-5.7.8-7.8 2.5-2.1 1.7-3.1 4-3.1 7.1V209zM244.9 201.7c0-3.7.4-7.2 1.2-10.4.8-3.3 2.1-6.1 3.7-8.5 1.7-2.4 3.8-4.3 6.3-5.7 2.5-1.4 5.5-2.1 8.9-2.1 3.4 0 6.3.7 8.8 2.1 2.5 1.4 4.5 3.4 6.1 6v-6.9h12.5v50.3c0 3.5-.6 6.5-1.9 9-1.3 2.5-3 4.6-5.1 6.3-2.1 1.7-4.6 2.9-7.4 3.7-2.8.8-5.7 1.2-8.7 1.2-3 0-5.8-.3-8.4-.8-2.6-.6-4.9-1.5-6.9-2.7-2-1.3-3.6-2.9-4.9-5-1.3-2-2.1-4.5-2.5-7.5h12.5c.4 2 1.3 3.5 2.7 4.6 1.4 1.1 3.6 1.7 6.5 1.7 1.5 0 2.9-.2 4.3-.5s2.6-.9 3.7-1.7c1.1-.8 1.9-2 2.5-3.4.6-1.5 1-3.3 1-5.6v-5.5c-1.6 2.5-3.6 4.5-6 6-2.4 1.4-5.3 2.2-8.7 2.2-3.4 0-6.3-.7-8.9-2.1-2.5-1.4-4.7-3.3-6.3-5.7-1.7-2.4-3-5.2-3.8-8.5-.8-3.4-1.2-6.8-1.2-10.5zm13 7.1c0 2.9.9 5.2 2.8 7.1s4.5 2.8 7.7 2.8c4 0 6.9-1.2 8.8-3.6 1.8-2.4 2.7-5.6 2.7-9.6v-7.6c0-4-.9-7.2-2.7-9.6-1.8-2.4-4.8-3.6-8.8-3.6-3.3 0-5.8.9-7.7 2.7-1.9 1.8-2.8 4.2-2.8 7v14.4zM301.9 227.2v-51.1h28.5v9.8h-16v41.3h-12.5zM331.5 212.7c0-4.1 1.4-7.7 4.3-10.7 2.9-3 7-4.7 12.4-5.2l14.1-1.2v-3.3c0-2.7-.7-4.6-2.1-5.8-1.4-1.2-3.4-1.8-5.9-1.8-2.5 0-4.6.6-6.2 1.8-1.6 1.2-2.4 3-2.4 5.4h-12.5c.1-2.8.7-5.3 1.8-7.4 1.1-2.1 2.7-3.9 4.5-5.3 1.9-1.4 4.1-2.5 6.7-3.2 2.6-.7 5.4-1.1 8.5-1.1 6.1 0 11 1.5 14.5 4.4 3.6 3 5.3 7.3 5.3 13.1v25h4.7v9.7h-15.8l-.1-7.9h-.3c-1.5 2.8-3.4 5-5.8 6.7-2.4 1.6-5.6 2.5-9.6 2.5-2.3 0-4.5-.4-6.4-1.2-1.9-.8-3.6-1.9-5.1-3.3-1.5-1.4-2.6-3-3.4-4.9-.8-1.9-1.2-4-1.2-6.3zm13 1.4c0 1.5.7 2.7 2.1 3.4 1.4.8 3.2 1.1 5.4 1.1 3.2 0 5.7-1.1 7.6-3.4 1.8-2.3 2.8-5 2.8-8.2v-2l-15 1.3c-1.9.2-2.8 1.3-2.8 3.3v4.5zM386 227.2v-51.1h12.5v7.4c1.5-2.7 3.3-4.9 5.6-6.4s5.1-2.2 8.5-2.2c3.7 0 6.7.8 9.1 2.5 2.4 1.6 4.1 4 5.3 7.1 3.3-6.4 8.5-9.5 15.5-9.5 5.2 0 9.1 1.7 11.8 5 2.6 3.3 3.9 7.9 3.9 13.8v33.4h-12.5v-32.6c0-6.3-2.4-9.5-7.2-9.5h-.1c-3 0-5.4 1.1-7.3 3.4-1.8 2.3-2.8 5.3-2.8 9.1v29.5h-12.5v-32.6c0-6.3-2.4-9.5-7.2-9.5h-.1c-3 0-5.4 1.1-7.2 3.4-1.8 2.3-2.7 5.3-2.7 9.1V227H386zM463.8 210.9h12.5c.5 5.2 3.6 7.7 9.2 7.7 2.4 0 4.5-.4 6.2-1.3 1.7-.9 2.5-2.3 2.5-4.3 0-1.9-.7-3.2-2.1-4-1.4-.8-3.2-1.5-5.5-2l-8.8-1.9c-8.5-1.9-12.8-6.7-12.8-14.6 0-2.2.4-4.3 1.3-6.2.9-1.9 2.2-3.5 3.9-4.9 1.7-1.4 3.8-2.5 6.2-3.3 2.4-.8 5.2-1.2 8.4-1.2 5.8 0 10.6 1.4 14.3 4.2 3.7 2.8 5.7 7 6 12.7h-12.5c-.1-2.4-.9-4.2-2.3-5.4-1.4-1.2-3.2-1.8-5.4-1.8s-3.9.5-5.3 1.5-2 2.3-2 4.1c0 1.7.5 3 1.5 3.9s2.3 1.4 3.9 1.8l10.1 2.2c1.9.4 3.7.9 5.4 1.7 1.7.7 3.2 1.7 4.4 2.9 1.2 1.2 2.2 2.6 2.9 4.2.7 1.6 1.1 3.5 1.1 5.7s-.5 4.3-1.4 6.2c-.9 1.9-2.3 3.6-4.1 5-1.8 1.4-4 2.6-6.6 3.4-2.6.8-5.7 1.3-9 1.3-6.8 0-12.1-1.5-15.8-4.5-3.9-3.1-5.9-7.5-6.2-13.1z"/></svg>
